HIERARCHY
ROOT hip
{
  OFFSET 0 0 0
  CHANNELS 6 Xposition Yposition Zposition Zrotation Yrotation Xrotation
  JOINT abdomen
  {
    OFFSET 0 20.6881 -0.73152
    CHANNELS 3 Zrotation Xrotation Yrotation
    JOINT chest
    {
      OFFSET 0 11.7043 -0.48768
      CHANNELS 3 Zrotation Xrotation Yrotation
      JOINT neck
      {
        OFFSET 0 22.1894 -2.19456
        CHANNELS 3 Zrotation Xrotation Yrotation
        JOINT head
        {
          OFFSET -0.24384 7.07133 1.2192
          CHANNELS 3 Zrotation Xrotation Yrotation
          JOINT leftEye
          {
            OFFSET 4.14528 8.04674 8.04672
            CHANNELS 3 Zrotation Xrotation Yrotation
            End Site
            {
              OFFSET 1 0 0
            }
          }
          JOINT rightEye
          {
            OFFSET -3.6576 8.04674 8.04672
            CHANNELS 3 Zrotation Xrotation Yrotation
            End Site
            {
              OFFSET 1 0 0
            }
          }
        }
      }
      JOINT rCollar
      {
        OFFSET -2.68224 19.2634 -4.8768
        CHANNELS 3 Zrotation Xrotation Yrotation
        JOINT rShldr
        {
          OFFSET -8.77824 -1.95073 1.46304
          CHANNELS 3 Zrotation Xrotation Yrotation
          JOINT rForeArm
          {
            OFFSET -28.1742 -1.7115 0.48768
            CHANNELS 3 Zrotation Xrotation Yrotation
            JOINT rHand
            {
              OFFSET -22.5879 0.773209 7.07136
              CHANNELS 3 Zrotation Xrotation Yrotation
              JOINT rThumb1
              {
                OFFSET -1.2192 -0.487915 3.41376
                CHANNELS 3 Zrotation Xrotation Yrotation
                JOINT rThumb2
                {
                  OFFSET -3.37035 -0.52449 3.41376
                  CHANNELS 3 Zrotation Xrotation Yrotation
                  End Site
                  {
                    OFFSET -1.78271 -1.18214 1.43049
                  }
                }
              }
              JOINT rIndex1
              {
                OFFSET -7.75947 0.938293 5.60832
                CHANNELS 3 Zrotation Xrotation Yrotation
                JOINT rIndex2
                {
                  OFFSET -2.54057 -0.884171 1.56538
                  CHANNELS 3 Zrotation Xrotation Yrotation
                  End Site
                  {
                    OFFSET -1.62519 -0.234802 1.16502
                  }
                }
              }
              JOINT rMid1
              {
                OFFSET -8.24714 1.18213 3.41376
                CHANNELS 3 Zrotation Xrotation Yrotation
                JOINT rMid2
                {
                  OFFSET -3.10165 -0.590103 1.0647
                  CHANNELS 3 Zrotation Xrotation Yrotation
                  End Site
                  {
                    OFFSET -2.48547 -0.328903 0.83742
                  }
                }
              }
              JOINT rRing1
              {
                OFFSET -8.82822 0.546677 1.51678
                CHANNELS 3 Zrotation Xrotation Yrotation
                JOINT rRing2
                {
                  OFFSET -2.60934 -0.819778 -0.0198488
                  CHANNELS 3 Zrotation Xrotation Yrotation
                  End Site
                  {
                    OFFSET -2.33842 -0.294052 0.168128
                  }
                }
              }
              JOINT rPinky1
              {
                OFFSET -8.27202 -0.0477905 -0.4584
                CHANNELS 3 Zrotation Xrotation Yrotation
                JOINT rPinky2
                {
                  OFFSET -1.82734 -0.647385 -0.700984
                  CHANNELS 3 Zrotation Xrotation Yrotation
                  End Site
                  {
                    OFFSET -1.69225 -0.51767 -0.607171
                  }
                }
              }
            }
          }
        }
      }
      JOINT lCollar
      {
        OFFSET 2.68224 19.2634 -4.8768
        CHANNELS 3 Zrotation Xrotation Yrotation
        JOINT lShldr
        {
          OFFSET 8.77824 -1.95073 1.46304
          CHANNELS 3 Zrotation Xrotation Yrotation
          JOINT lForeArm
          {
            OFFSET 28.1742 -1.7115 0.48768
            CHANNELS 3 Zrotation Xrotation Yrotation
            JOINT lHand
            {
              OFFSET 22.5879 0.773209 7.07136
              CHANNELS 3 Zrotation Xrotation Yrotation
              JOINT lThumb1
              {
                OFFSET 1.2192 -0.487915 3.41376
                CHANNELS 3 Zrotation Xrotation Yrotation
                JOINT lThumb2
                {
                  OFFSET 3.37035 -0.52449 3.41376
                  CHANNELS 3 Zrotation Xrotation Yrotation
                  End Site
                  {
                    OFFSET 1.78271 -1.18214 1.43049
                  }
                }
              }
              JOINT lIndex1
              {
                OFFSET 7.75947 0.938293 5.60832
                CHANNELS 3 Zrotation Xrotation Yrotation
                JOINT lIndex2
                {
                  OFFSET 2.54057 -0.884171 1.56538
                  CHANNELS 3 Zrotation Xrotation Yrotation
                  End Site
                  {
                    OFFSET 1.62519 -0.234802 1.16502
                  }
                }
              }
              JOINT lMid1
              {
                OFFSET 8.24714 1.18213 3.41376
                CHANNELS 3 Zrotation Xrotation Yrotation
                JOINT lMid2
                {
                  OFFSET 3.10165 -0.590103 1.0647
                  CHANNELS 3 Zrotation Xrotation Yrotation
                  End Site
                  {
                    OFFSET 2.48547 -0.328903 0.83742
                  }
                }
              }
              JOINT lRing1
              {
                OFFSET 8.82822 0.546677 1.51678
                CHANNELS 3 Zrotation Xrotation Yrotation
                JOINT lRing2
                {
                  OFFSET 2.60934 -0.819778 -0.0198488
                  CHANNELS 3 Zrotation Xrotation Yrotation
                  End Site
                  {
                    OFFSET 2.33842 -0.294052 0.168128
                  }
                }
              }
              JOINT lPinky1
              {
                OFFSET 8.27202 -0.0477905 -0.4584
                CHANNELS 3 Zrotation Xrotation Yrotation
                JOINT lPinky2
                {
                  OFFSET 1.82734 -0.647385 -0.700984
                  CHANNELS 3 Zrotation Xrotation Yrotation
                  End Site
                  {
                    OFFSET 1.69225 -0.51767 -0.607171
                  }
                }
              }
            }
          }
        }
      }
    }
  }
  JOINT rButtock
  {
    OFFSET -8.77824 4.35084 1.2192
    CHANNELS 3 Zrotation Xrotation Yrotation
    JOINT rThigh
    {
      OFFSET 0 -1.70687 -2.19456
      CHANNELS 3 Zrotation Xrotation Yrotation
      JOINT rShin
      {
        OFFSET 0 -36.8199 0.73152
        CHANNELS 3 Zrotation Xrotation Yrotation
        JOINT rFoot
        {
          OFFSET 0.73152 -45.1104 -5.12064
          CHANNELS 3 Zrotation Xrotation Yrotation
          End Site
          {
            OFFSET -1.1221 -3.69964 12.103
          }
        }
      }
    }
  }
  JOINT lButtock
  {
    OFFSET 8.77824 4.35084 1.2192
    CHANNELS 3 Zrotation Xrotation Yrotation
    JOINT lThigh
    {
      OFFSET 0 -1.70687 -2.19456
      CHANNELS 3 Zrotation Xrotation Yrotation
      JOINT lShin
      {
        OFFSET 0 -36.8199 0.73152
        CHANNELS 3 Zrotation Xrotation Yrotation
        JOINT lFoot
        {
          OFFSET -0.73152 -45.1104 -5.12064
          CHANNELS 3 Zrotation Xrotation Yrotation
          End Site
          {
            OFFSET 1.1221 -3.69964 12.103
          }
        }
      }
    }
  }
}
MOTION
Frames:	4
Frame Time:	0.00833333
96.0717 63.531 229.238 0.0 0.0 0.0 1.57502 -0.00270812 0.0428957 0.434161 0.00151568 0.0751864 -1.88467e-14 -7.95139e-16 -4.47266e-16 -5.61287e-14 3.18055e-15 -1.29365e-15 -0.0 0.0 0.0 -0.0 0.0 0.0 -9.4438e-15 1.86361e-17 -9.93923e-17 -1.96091e-13 1.05604e-16 -4.37326e-15 -3.40737e-12 1.03368e-12 -4.77083e-14 -3.89876e-11 -9.57844e-13 -9.95514e-13 -9.19673e-11 1.66372e-13 -2.22957e-12 -1.58832e-10 2.8625e-13 -3.85483e-12 -9.19642e-11 1.66184e-13 -2.24547e-12 7.73091 5.47488 0.417314 -9.19676e-11 1.66184e-13 -2.22957e-12 2.90554 0.965183 0.102902 -9.19665e-11 1.65786e-13 -2.23036e-12 10.2786 0.731801 0.0259123 -9.19747e-11 1.7016e-13 -2.22639e-12 2.22167 -0.733487 -0.20892 -9.54075e-15 1.78596e-17 -3.97569e-16 -2.00004e-13 2.23633e-16 -6.36111e-15 -3.40647e-12 -1.01042e-12 -6.04305e-14 -3.89963e-11 1.08902e-12 -9.57347e-13 -9.19778e-11 1.72413e-13 -2.22639e-12 -1.58829e-10 2.98972e-13 -3.83893e-12 -9.19828e-11 1.7334e-13 -2.21367e-12 -7.73091 5.47488 -0.417314 -9.19784e-11 1.72346e-13 -2.22639e-12 -2.90554 0.965183 -0.102902 -9.19835e-11 1.72346e-13 -2.22559e-12 -10.2786 0.731801 -0.0259123 -9.19715e-11 1.73738e-13 -2.23593e-12 -2.22167 -0.733487 0.20892 -2.03217e-16 0.0 -3.88251e-19 1.70474 -6.60401 -0.159328 0.00258763 6.39965 0.0733689 -0.52791 0.199751 0.0640769 2.03217e-16 0.0 3.88251e-19 0.692134 -1.9236 0.00557977 0.00917665 -2.07857 0.0757382 0.502844 3.99746 -0.138938
96.3214 61.106 228.236 175.516 -22.8288 -149.87 1.98984 4.66498 -2.17903 1.39637 -2.454 -0.437241 -0.438118 0.35614 0.726436 -0.807873 -11.0153 0.728633 -0.0 0.0 0.0 -0.0 0.0 0.0 -4.20097e-14 2.4141e-14 -3.21996e-14 21.0526 8.93107 -10.9423 -12.179 -9.13407 13.5295 0.0225998 -3.33569 -0.465934 2.18426e-10 1.94622e-10 1.61701e-10 3.75133e-10 3.36375e-10 2.81667e-10 2.18428e-10 1.94624e-10 1.61685e-10 7.73091 5.47488 0.417314 2.18425e-10 1.94623e-10 1.61701e-10 2.90554 0.965183 0.102902 2.1843e-10 1.94624e-10 1.61699e-10 10.2786 0.731801 0.0259123 2.1842e-10 1.94627e-10 1.61704e-10 2.22167 -0.733487 -0.20892 -4.20825e-14 2.41405e-14 -3.24683e-14 -21.4692 16.9659 -1.60649 -0.610122 16.5598 40.5579 0.000288458 -0.36964 0.0519766 -1.09339e-10 -6.56291e-10 -6.27166e-11 -1.90467e-10 -1.1242e-09 -1.06971e-10 -1.09343e-10 -6.56289e-10 -6.27047e-11 -7.73091 5.47488 -0.417314 -1.09339e-10 -6.56292e-10 -6.27176e-11 -2.90554 0.965183 -0.102902 -1.09344e-10 -6.56291e-10 -6.27156e-11 -10.2786 0.731801 -0.0259123 -1.09334e-10 -6.56289e-10 -6.27262e-11 -2.22167 -0.733487 0.20892 -2.03217e-16 0.0 -3.88251e-19 2.08554 -26.6466 -3.00932 -0.139481 24.1163 0.290748 -1.29699 -2.53624 -3.28169 2.03217e-16 0.0 3.88251e-19 -0.99593 -3.79382 -1.94544 -0.0547442 11.9435 -0.152595 0.8569 7.41503 -1.27188
95.7638 61.2125 226.862 175.562 -22.4039 -149.832 2.76613 9.53611 -4.59959 2.37776 -5.04565 -0.988393 -0.903634 0.723404 1.49484 -1.31783 -22.5964 1.61025 -0.0 0.0 0.0 -0.0 0.0 0.0 -7.79823e-14 5.10957e-14 -7.03605e-14 47.1044 17.3139 -23.512 -20.4207 -17.1419 28.9121 -0.0128866 -6.86161 -0.963822 5.51688e-10 3.95514e-10 3.33477e-10 9.48489e-10 6.83564e-10 5.80884e-10 5.51688e-10 3.95519e-10 3.33461e-10 7.73091 5.47488 0.417314 5.51685e-10 3.95518e-10 3.33476e-10 2.90554 0.965183 0.102902 5.51694e-10 3.9552e-10 3.33474e-10 10.2786 0.731801 0.0259123 5.51683e-10 3.95521e-10 3.33479e-10 2.22167 -0.733487 -0.20892 -7.80284e-14 5.10955e-14 -7.05965e-14 -42.8522 34.9084 -3.92289 -16.5825 7.2925 82.3254 0.00167894 -0.699516 0.0983936 -1.37489e-10 -1.35875e-09 -1.06543e-10 -2.40976e-10 -2.32737e-09 -1.81181e-10 -1.37492e-10 -1.35875e-09 -1.06532e-10 -7.73091 5.47488 -0.417314 -1.37488e-10 -1.35875e-09 -1.06545e-10 -2.90554 0.965183 -0.102902 -1.37495e-10 -1.35875e-09 -1.06542e-10 -10.2786 0.731801 -0.0259123 -1.37486e-10 -1.35875e-09 -1.06553e-10 -2.22167 -0.733487 0.20892 -2.03217e-16 0.0 -3.88251e-19 -0.722027 -47.7131 -8.02454 -0.491202 42.8433 0.638492 -2.45553 -5.3555 -6.83661 2.03217e-16 0.0 3.88251e-19 -2.97115 -5.60205 -4.06977 0.00865929 26.5363 -0.431278 1.38826 11.0926 -2.50347
95.2613 61.3458 225.437 175.918 -21.963 -149.922 3.93064 13.9157 -6.80173 3.18814 -7.36284 -1.47304 -1.34144 1.06773 2.17964 -1.44594 -33.0223 2.55927 -0.0 0.0 0.0 -0.0 0.0 0.0 -1.07142e-13 7.23856e-14 -9.64001e-14 73.4575 22.7618 -35.5538 -24.0806 -21.1805 43.652 -0.0970792 -10.0044 -1.41699 8.39213e-10 5.83533e-10 4.89563e-10 1.44306e-09 1.00855e-09 8.5271e-10 8.39212e-10 5.83539e-10 4.89547e-10 7.73091 5.47488 0.417314 8.3921e-10 5.83538e-10 4.89561e-10 2.90554 0.965183 0.102902 8.39222e-10 5.83541e-10 4.89558e-10 10.2786 0.731801 0.0259123 8.3921e-10 5.8354e-10 4.89564e-10 2.22167 -0.733487 -0.20892 -1.07166e-13 7.23857e-14 -9.66097e-14 -60.1634 50.6888 -7.28794 -22.4186 -22.931 101.842 0.00287763 -1.10892 0.155956 -1.4406e-10 -1.96922e-09 -1.83697e-10 -2.53744e-10 -3.3732e-09 -3.13235e-10 -1.44063e-10 -1.96921e-09 -1.83687e-10 -7.73091 5.47488 -0.417314 -1.4406e-10 -1.96922e-09 -1.837e-10 -2.90554 0.965183 -0.102902 -1.44066e-10 -1.96922e-09 -1.83696e-10 -10.2786 0.731801 -0.0259123 -1.44059e-10 -1.96922e-09 -1.83707e-10 -2.22167 -0.733487 0.20892 -2.03217e-16 0.0 -3.88251e-19 -10.6279 -65.6327 -19.0819 -1.18961 59.544 1.28301 -3.79608 -7.89896 -10.06 2.03217e-16 0.0 3.88251e-19 -4.75636 -7.5015 -5.88521 0.230762 39.9851 -0.782108 1.98215 14.2283 -3.61764
